# xmcd
#
# Track frame offsets:
#	150
#	11895
#	26475
#	38170
#	52880
#	72505
#	88620
#	102435
#	117885
#	132190
#	148080
#	168510
#	183155
#	197690
#	217200
#
# Disc length: 3084 seconds
#
# Revision: 1
# Processed by: cddbd v1.5.2PL0 Copyright (c) Steve Scherf et al.
# Submitted via: audiograbber 1.83.01
#
DISCID=d90c0a0f
DTITLE=Music Maestro Karaoke - MM6067
DYEAR=1900
DGENRE=Karaoke
TTITLE0=Marvin Gaye - Pride And Joy
TTITLE1=Aretha Franklin - I Never Loved A Man
TTITLE2=Gee Whiz - Carla Thomas
TTITLE3=Stevie Wonder - Yester-Me, Yester-You, Yesterday
TTITLE4=Diana Ross - Muscles
TTITLE5=Ray Charles - You Don't Know Me
TTITLE6=Mary Wells - You Beat Me To The Punch
TTITLE7=Jerry Butler - He Will Break Your Heart
TTITLE8=Ray Charles - Unchain My Heart
TTITLE9=Marvin Gaye - What's Going On
TTITLE10=Peabo Bryson - If Ever You're In My Arms Again
TTITLE11=Marvin Gaye/Tammy Terrel - Your Precious Love
TTITLE12=Jackie Wilson - Higher And Higher
TTITLE13=Stevie Wonder - Sir Duke
TTITLE14=Evelyn "Champagne" King - Shame
EXTD=
EXTT0=
EXTT1=
EXTT2=
EXTT3=
EXTT4=
EXTT5=
EXTT6=
EXTT7=
EXTT8=
EXTT9=
EXTT10=
EXTT11=
EXTT12=
EXTT13=
EXTT14=
PLAYORDER=
